HIERARCHY
ROOT Hips
{
  OFFSET 0 89.5177 0.535
  CHANNELS 6 Xposition Yposition Zposition Zrotation Xrotation Yrotation
  JOINT Spine
  {
    OFFSET 12.0259 -0.162855 1.69034e-005
    CHANNELS 3 Zrotation Xrotation Yrotation
    JOINT Spine1
    {
      OFFSET 15.3169 -0.0121922 0
      CHANNELS 3 Zrotation Xrotation Yrotation
      JOINT Spine2
      {
        OFFSET 15.3176 -0.0121908 0
        CHANNELS 3 Zrotation Xrotation Yrotation
        JOINT Neck
        {
          OFFSET 19.9142 1.56338 0
          CHANNELS 3 Zrotation Xrotation Yrotation
          JOINT Head
          {
            OFFSET 6.92651 0 0
            CHANNELS 3 Zrotation Xrotation Yrotation
            End Site
            {
              OFFSET 20.7666 0 0
            }
          }
          JOINT LeftShoulder
          {
            OFFSET -6.20654 0.708824 7.28219
            CHANNELS 3 Zrotation Xrotation Yrotation
            JOINT LeftArm
            {
              OFFSET 14.108 0 -1.52588e-005
              CHANNELS 3 Zrotation Xrotation Yrotation
              JOINT LeftForeArm
              {
                OFFSET 28.5802 0 0
                CHANNELS 3 Zrotation Xrotation Yrotation
                JOINT LeftHand
                {
                  OFFSET 27.092 0 0
                  CHANNELS 3 Zrotation Xrotation Yrotation
                  End Site
                  {
                    OFFSET 9.55928 -0.186424 0.145352
                  }
                }
              }
            }
          }
          JOINT RightShoulder
          {
            OFFSET -6.20654 0.708866 -7.28218
            CHANNELS 3 Zrotation Xrotation Yrotation
            JOINT RightArm
            {
              OFFSET 14.108 0 1.52588e-005
              CHANNELS 3 Zrotation Xrotation Yrotation
              JOINT RightForeArm
              {
                OFFSET 28.5802 0 0
                CHANNELS 3 Zrotation Xrotation Yrotation
                JOINT RightHand
                {
                  OFFSET 27.092 0 0
                  CHANNELS 3 Zrotation Xrotation Yrotation
                  End Site
                  {
                    OFFSET 9.55929 -0.186417 -0.145354
                  }
                }
              }
            }
          }
        }
      }
    }
  }
  JOINT LeftUpLeg
  {
    OFFSET 0.005 -0.535 8.837
    CHANNELS 3 Zrotation Xrotation Yrotation
    JOINT LeftLeg
    {
      OFFSET 39.9035 0 0
      CHANNELS 3 Zrotation Xrotation Yrotation
      JOINT LeftFoot
      {
        OFFSET 39.6689 0 0
        CHANNELS 3 Zrotation Xrotation Yrotation
        JOINT LeftToe
        {
          OFFSET 10.1624 13.6296 0
          CHANNELS 3 Zrotation Xrotation Yrotation
          End Site
          {
            OFFSET 8.38147 0 0
          }
        }
      }
    }
  }
  JOINT RightUpLeg
  {
    OFFSET 0.005 -0.535 -8.837
    CHANNELS 3 Zrotation Xrotation Yrotation
    JOINT RightLeg
    {
      OFFSET 39.9035 0 0
      CHANNELS 3 Zrotation Xrotation Yrotation
      JOINT RightFoot
      {
        OFFSET 39.6689 0 0
        CHANNELS 3 Zrotation Xrotation Yrotation
        JOINT RightToe
        {
          OFFSET 10.1624 13.6296 0
          CHANNELS 3 Zrotation Xrotation Yrotation
          End Site
          {
            OFFSET 8.38147 0 0
          }
        }
      }
    }
  }
}
MOTION
Frames:	18
Frame Time:	0.0333333
435.457 88.569 29.2429 139.78 -83.3958 49.9316 -0.0223763 -0.780716 0.989661 -0.031267 -1.56123 1.97946 -0.0312671 -1.56123 1.97945 -8.30589e-012 -9.0191e-006 -5.27751e-005 -9.34338 7.1695 0.409805 -178.721 -9.58602 -82.3641 58.1804 -69.3755 57.5309 -6.68422 3.18055e-015 1.59028e-015 -36.2267 -18.4561 -30.304 -179.862 2.44247 86.7741 47.9426 50.963 -43.5754 -22.4718 6.36111e-015 -0 -29.392 33.0626 33.2997 -6.82652 0.30724 -176.36 -16.6209 -1.59028e-015 -1.59028e-015 17.7374 13.2798 -8.7607 90 2.23633e-016 3.18055e-015 -4.06911 -3.12222 -178.837 -12.9343 1.98785e-016 -1.49089e-016 13.7471 -6.82902 0.687249 90 -4.96962e-017 -1.59028e-015 
435.277 88.5619 28.9746 140.283 -83.5897 50.4221 -0.0409325 -0.764089 0.966704 -0.0689753 -1.52829 1.93329 -0.0689754 -1.52829 1.93328 -8.30748e-012 -9.0191e-006 -5.27751e-005 -9.27686 7.0536 0.340006 -178.719 -9.56068 -82.3299 59.8579 -69.7758 58.8571 -6.28454 3.18055e-015 -0 -36.2842 -18.3653 -30.3187 -179.859 2.45575 86.7216 47.8714 50.9622 -43.4432 -22.4877 -3.18055e-015 -3.18055e-015 -29.2182 33.0332 33.0886 -6.38373 0.267745 -176.487 -16.4061 2.38542e-015 1.19271e-015 17.6632 13.0296 -8.59991 90 -1.2424e-016 -3.18055e-015 -3.47332 -2.94059 -178.889 -12.3255 -1.98785e-016 -1.49089e-016 13.633 -6.77559 0.586893 90 7.95139e-016 -1.59028e-015 
435.099 88.5514 28.7243 140.351 -83.7372 50.4747 -0.0603115 -0.759513 0.944866 -0.108103 -1.51945 1.88935 -0.108103 -1.51945 1.88934 -8.30669e-012 -9.0191e-006 -5.27751e-005 -9.27851 6.94384 0.369209 -178.694 -9.66987 -82.2728 59.4955 -69.5561 58.4466 -6.36358 1.59028e-015 -0 -36.1944 -18.6421 -30.6453 -179.859 2.46064 86.7274 48.0903 51.0426 -43.5348 -22.4283 0 -3.97569e-015 -29.2112 33.0303 33.0939 -6.05251 0.327224 -176.589 -16.3511 -7.95139e-016 -0 17.7243 12.9362 -8.52192 90 -3.23025e-016 -1.59028e-015 -2.91112 -2.85164 -178.945 -11.7653 1.98785e-016 4.96962e-016 13.5372 -6.74527 0.512858 90 -6.83322e-017 -0 
434.934 88.5394 28.4901 139.777 -83.855 49.8763 -0.0618672 -0.759579 0.92581 -0.111655 -1.51178 1.85121 -0.111655 -1.51178 1.85121 -8.30748e-012 -9.0191e-006 -5.27751e-005 -9.39296 6.83493 0.416842 -178.68 -9.68301 -82.1971 59.3659 -69.3823 58.2553 -6.45481 3.18055e-015 -4.77083e-015 -36.1429 -18.689 -30.4575 -179.857 2.5268 86.757 48.3183 51.1154 -43.6629 -22.2891 -1.59028e-014 -5.1684e-015 -29.405 33.1021 33.3305 -5.7279 0.277655 -176.68 -16.3089 -7.95139e-016 -2.18663e-015 17.7743 12.8374 -8.42541 90 5.2181e-016 -3.18055e-015 -2.34344 -2.83776 -178.99 -11.2276 -1.98785e-016 -4.47266e-016 13.4466 -6.73111 0.456731 90 1.11816e-016 -0 
434.784 88.5307 28.2724 139.007 -83.9604 49.0892 -0.0715752 -0.75972 0.898047 -0.131205 -1.52192 1.79555 -0.131205 -1.52192 1.79554 -8.30748e-012 -9.0191e-006 -5.27751e-005 -9.46856 6.74011 0.566507 -178.654 -9.772 -82.1177 59.5057 -69.4229 58.3985 -6.43003 3.18055e-015 3.18055e-015 -36.1836 -18.6248 -30.4028 -179.854 2.53859 86.7139 48.5184 51.1989 -43.6748 -22.0778 -3.18055e-015 -0 -29.3081 33.1038 33.2373 -5.39781 0.187263 -176.769 -16.235 0 1.98785e-016 17.8134 12.7176 -8.32992 90 -5.71506e-016 -1.59028e-015 -1.78235 -2.86397 -179.035 -10.6881 0 3.47873e-016 13.3441 -6.73239 0.423329 90 1.3977e-016 -1.59028e-015 
434.653 88.5148 28.0657 138.446 -84.0546 48.467 -0.0817154 -0.759858 0.880908 -0.151706 -1.52265 1.76113 -0.151706 -1.52265 1.76113 -8.30589e-012 -9.0191e-006 -5.27751e-005 -9.5424 6.65384 0.62463 -178.646 -9.78086 -82.077 59.4994 -69.3566 58.3596 -6.39647 -1.59028e-015 1.59028e-015 -36.2292 -18.5994 -30.4334 -179.853 2.55376 86.7092 48.5902 51.1699 -43.6458 -21.8365 0 -1.59028e-015 -29.4678 33.2529 33.4891 -5.13204 0.148375 -176.808 -16.2567 0 -0 17.9457 12.6354 -8.19768 90 0 -1.59028e-015 -1.28195 -2.90161 -179.032 -10.2061 1.98785e-016 -0 13.259 -6.75221 0.415418 90 -3.44767e-016 -6.36111e-015 
434.543 88.499 27.8645 137.942 -84.1954 47.9005 -0.0862155 -0.759922 0.869532 -0.160908 -1.52059 1.73832 -0.160908 -1.52059 1.73831 -8.30828e-012 -9.0191e-006 -5.27751e-005 -9.52937 6.6601 0.671432 -178.629 -9.81885 -82.01 59.584 -69.3703 58.4364 -6.33611 0 -0 -36.1291 -18.7154 -30.4977 -179.854 2.54935 86.7181 48.8097 51.2434 -43.7921 -21.6476 -6.36111e-015 7.95139e-016 -29.3789 33.2435 33.4453 -4.80329 0.0180998 -176.836 -16.2086 1.59028e-015 3.97569e-016 18.0207 12.4825 -8.02302 90 -2.26118e-015 -1.59028e-015 -0.756447 -2.89706 -179.011 -9.71792 0 -7.45443e-017 13.161 -6.75818 0.400734 90 -1.36664e-016 -6.36111e-015 
434.441 88.4852 27.682 137.875 -84.349 47.7929 -0.0938112 -0.752932 0.849475 -0.17647 -1.5067 1.69811 -0.176471 -1.5067 1.6981 -8.30748e-012 -9.0191e-006 -5.27751e-005 -9.50691 6.63673 0.641306 -178.623 -9.82017 -81.9783 59.7518 -69.3846 58.5538 -6.23859 -4.77083e-015 3.18055e-015 -36.1955 -18.6427 -30.5117 -179.851 2.56686 86.6765 48.7702 51.1661 -43.7708 -21.5849 0 3.18055e-015 -29.2827 33.3645 33.4499 -4.49503 -0.00699337 -176.876 -16.1407 2.38542e-015 1.98785e-016 18.0723 12.3519 -7.89491 90 4.47266e-016 -0 -0.349114 -2.88232 -179.023 -9.38249 -9.93923e-017 1.2424e-016 13.12 -6.80611 0.440851 90 2.01891e-016 1.59028e-015 
434.356 88.4738 27.5143 138.044 -84.5064 47.9143 -0.10316 -0.750099 0.832215 -0.195437 -1.50115 1.66346 -0.195438 -1.50115 1.66345 -8.30748e-012 -9.0191e-006 -5.27751e-005 -9.42814 6.69518 0.595983 -178.603 -9.89482 -81.9213 59.9349 -69.4539 58.7463 -6.16397 -1.59028e-015 1.59028e-015 -36.275 -18.592 -30.5137 -179.853 2.53656 86.6819 48.9561 51.1162 -43.9897 -21.5895 -1.27222e-014 -1.59028e-015 -29.0769 33.3288 33.2755 -4.24349 0.0606094 -176.879 -16.1273 1.59028e-015 1.98785e-016 18.169 12.3056 -7.8456 90 -8.19987e-016 -1.59028e-015 -0.0181153 -2.88796 -179.033 -9.1473 -9.93923e-017 -0 13.1149 -6.89446 0.546002 90 2.23633e-016 -0 
434.28 88.466 27.3517 138.508 -84.6996 48.3458 -0.11106 -0.740135 0.809989 -0.21167 -1.4813 1.61892 -0.21167 -1.4813 1.61891 -8.30589e-012 -9.0191e-006 -5.27751e-005 -9.36838 6.79731 0.576271 -178.592 -9.97918 -81.9289 59.9197 -69.3556 58.7772 -6.28537 -3.18055e-015 3.18055e-015 -36.0581 -18.8309 -30.6205 -179.853 2.52089 86.6634 48.9277 50.9927 -44.0153 -21.5666 9.54166e-015 3.97569e-015 -28.9046 33.3429 33.1317 -3.92209 0.101734 -176.906 -15.9877 -7.95139e-016 -3.97569e-016 18.1285 12.1585 -7.76653 90 -2.98177e-016 -0 0.280494 -2.87243 -179.058 -8.97452 2.98177e-016 -1.73937e-016 13.1314 -7.00307 0.682829 90 1.55301e-017 -1.59028e-015 
434.209 88.4562 27.2135 139.285 -84.8992 49.0997 -0.120613 -0.720412 0.794988 -0.231244 -1.44196 1.58882 -0.231244 -1.44196 1.58881 -8.30669e-012 -9.0191e-006 -5.27751e-005 -9.34266 6.88036 0.420401 -178.586 -9.9411 -81.8608 60.0127 -69.3175 58.7508 -6.41457 3.18055e-015 -3.18055e-015 -36.1362 -19.1263 -30.949 -179.855 2.5026 86.6821 48.9534 50.9766 -44.022 -21.497 3.18055e-015 2.38542e-015 -28.6375 33.4249 32.9686 -3.63897 0.149917 -176.938 -15.882 -3.97569e-016 3.97569e-016 18.1155 12.033 -7.69415 90 1.72694e-015 1.59028e-015 0.574632 -2.75344 -179.08 -8.75104 9.93923e-017 -1.98785e-016 13.1033 -7.04067 0.719507 90 -3.72721e-017 -0 
434.13 88.4476 27.0726 139.892 -85.1089 49.6946 -0.125653 -0.70731 0.774218 -0.241764 -1.41578 1.54723 -0.241764 -1.41578 1.54722 -8.30748e-012 -9.0191e-006 -5.27751e-005 -9.28926 7.08863 0.321965 -178.572 -10.0386 -81.8609 61.4803 -69.7617 60.1725 -6.21603 -1.59028e-015 -0 -36.132 -19.1431 -30.8743 -179.859 2.41829 86.672 48.8837 50.926 -43.8375 -21.4257 -3.18055e-015 -3.18055e-015 -28.5549 33.5178 32.9992 -3.30217 0.148858 -176.997 -15.7137 7.95139e-016 -1.98785e-016 18.0423 11.8506 -7.5912 90 4.96962e-017 -0 0.871952 -2.66416 -179.122 -8.56658 -4.96962e-017 -3.72721e-017 13.0977 -7.09296 0.783247 90 1.58407e-016 3.18055e-015 
434.062 88.4416 26.9512 140.826 -85.3186 50.6223 -0.13475 -0.684611 0.762573 -0.260404 -1.37048 1.52387 -0.260404 -1.37048 1.52386 -8.30788e-012 -9.0191e-006 -5.27751e-005 -9.32624 7.22077 0.23165 -178.58 -9.96201 -81.8444 62.1042 -69.9294 60.5572 -6.13755 -3.18055e-015 -1.59028e-015 -36.1813 -19.2581 -31.0184 -179.865 2.36593 86.7281 49.0053 51.0123 -43.7892 -21.3671 3.18055e-015 1.59028e-015 -28.5606 33.4493 32.9582 -3.02211 0.285781 -177.038 -15.5918 0 3.97569e-016 17.9988 11.7536 -7.56428 90 6.4605e-016 1.59028e-015 1.05285 -2.60171 -179.178 -8.55278 4.96962e-017 -6.21202e-017 13.1607 -7.1955 0.917751 90 5.03174e-016 -1.59028e-015 
433.992 88.4341 26.8279 142.114 -85.5561 51.9089 -0.141201 -0.659545 0.755278 -0.273722 -1.32042 1.50925 -0.273722 -1.32042 1.50924 -8.30788e-012 -9.0191e-006 -5.27751e-005 -9.382 7.33036 0.106892 -178.573 -9.95209 -81.7963 61.9333 -70.0345 60.2026 -6.04431 3.18055e-015 1.59028e-015 -36.242 -19.3351 -31.2304 -179.87 2.35028 86.8358 49.0235 51.0236 -43.6756 -21.4163 -6.36111e-015 -3.18055e-015 -28.5608 33.4234 32.9835 -2.73653 0.454031 -177.083 -15.489 0 -1.68967e-015 17.9952 11.6734 -7.547 90 -1.80149e-015 1.59028e-015 1.18341 -2.55031 -179.254 -8.65132 4.96962e-017 1.2424e-017 13.2774 -7.33237 1.08908 90 8.07563e-017 1.59028e-015 
433.936 88.4292 26.726 143.893 -85.7218 53.6724 -0.167787 -0.641752 0.739729 -0.327304 -1.28515 1.47789 -0.327304 -1.28515 1.47788 -8.30788e-012 -9.0191e-006 -5.27751e-005 -9.36638 7.44047 0.0663238 -178.585 -10.0654 -81.9578 63.0559 -70.3336 61.1834 -5.86205 0 1.59028e-015 -36.2365 -19.1381 -30.9891 -179.872 2.35813 86.8862 48.8515 50.9695 -43.3761 -21.4846 0 2.38542e-015 -28.5599 33.4665 33.0035 -2.51076 0.516799 -177.113 -15.3453 0 -9.93923e-017 17.9469 11.5591 -7.50286 90 1.11816e-016 1.59028e-015 1.28896 -2.44792 -179.295 -8.63453 1.86361e-017 2.79541e-017 13.3221 -7.41658 1.20949 90 -2.17421e-017 3.18055e-015 
433.877 88.421 26.6243 145.934 -85.9149 55.703 -0.190556 -0.624973 0.743616 -0.373017 -1.25189 1.48545 -0.373018 -1.25189 1.48545 -8.30828e-012 -9.0191e-006 -5.27751e-005 -9.27177 7.57493 -0.0572932 -178.573 -10.2515 -82.0293 63.5645 -70.4713 61.5585 -5.89539 -3.18055e-015 3.18055e-015 -36.2403 -19.2287 -30.9969 -179.883 2.34431 87.1343 49.0545 51.0287 -43.384 -21.6034 -3.18055e-015 -2.38542e-015 -28.4094 33.3872 32.8567 -2.25067 0.590947 -177.159 -15.1903 -7.95139e-016 -5.96354e-016 17.9011 11.4137 -7.42048 90 -1.47225e-015 -0 1.33161 -2.35341 -179.357 -8.78056 -1.2424e-017 6.21202e-018 13.447 -7.53321 1.37509 90 2.88859e-016 -1.59028e-015 
433.823 88.4128 26.5373 147.784 -86.0732 57.5484 -0.214701 -0.609999 0.740303 -0.421538 -1.22225 1.47861 -0.421538 -1.22225 1.47861 -8.30748e-012 -9.0191e-006 -5.27751e-005 -9.27845 7.61407 -0.175713 -178.582 -10.4059 -82.1979 64.2555 -70.6377 62.0641 -5.99277 1.59028e-015 3.18055e-015 -36.2303 -19.2812 -31.1258 -179.89 2.35938 87.3403 49.2172 51.0855 -43.2546 -21.7222 3.18055e-015 -0 -28.3547 33.2828 32.7178 -2.06414 0.718727 -177.194 -15.1194 0 4.96962e-016 17.9169 11.3567 -7.39064 90 -1.6027e-015 -7.95139e-015 1.40801 -2.24999 -179.408 -8.82816 0 2.48481e-017 13.5164 -7.60368 1.4634 90 3.10601e-016 -0 
433.771 88.4069 26.4652 149.291 -86.1755 59.048 -0.233968 -0.600219 0.733841 -0.460267 -1.20291 1.46552 -0.460267 -1.20291 1.46551 -8.30788e-012 -9.0191e-006 -5.27751e-005 -9.38739 7.70453 -0.248828 -178.613 -10.4928 -82.4256 65.5862 -71.0103 63.0848 -5.9202 -1.59028e-015 3.18055e-015 -36.3377 -19.0633 -31.0705 -179.895 2.40945 87.5025 49.2394 51.1153 -42.9561 -21.8075 9.54166e-015 7.95139e-016 -28.4507 33.3649 32.8245 -1.956 0.875326 -177.219 -15.1151 0 1.98785e-016 17.9964 11.3639 -7.39117 90 1.69588e-015 3.18055e-015 1.47553 -2.17406 -179.45 -8.8306 -4.96962e-017 -1.2424e-017 13.5588 -7.66229 1.54151 90 -2.48481e-017 1.59028e-015 
